<mxfile host="app.diagrams.net" modified="2022-07-08T13:02:57.061Z" agent="5.0 (X11)" etag="MadqJ3h7XFPjIbEyCjvx" version="20.0.4" type="github" pages="2">
  <diagram name="all" id="yjzHrt2KiwfoHxwn7fsB">
    <mxGraphModel dx="2062" dy="1091" grid="1" gridSize="10" guides="1" tooltips="1" connect="1" arrows="1" fold="1" page="1" pageScale="1" pageWidth="850" pageHeight="1100" math="0" shadow="0">
      <root>
        <mxCell id="AhHYrD_jLXWVPU9GXJPQ-0" />
        <mxCell id="AhHYrD_jLXWVPU9GXJPQ-1" parent="AhHYrD_jLXWVPU9GXJPQ-0" />
        <mxCell id="4IdpGxViCFuvlN3iOuEt-2" value="" style="endArrow=none;dashed=1;html=1;rounded=0;sketch=1;fontFamily=Gloria Hallelujah;fontSource=https%3A%2F%2Ffonts.googleapis.com%2Fcss%3Ffamily%3DGloria%2BHallelujah;fontSize=32;" parent="AhHYrD_jLXWVPU9GXJPQ-1" edge="1">
          <mxGeometry width="50" height="50" relative="1" as="geometry">
            <mxPoint x="492" y="500" as="sourcePoint" />
            <mxPoint x="492" y="100" as="targetPoint" />
          </mxGeometry>
        </mxCell>
        <mxCell id="AhHYrD_jLXWVPU9GXJPQ-2" value="&lt;font style=&quot;font-size: 32px;&quot; data-font-src=&quot;https://fonts.googleapis.com/css?family=Gloria+Hallelujah&quot; face=&quot;Gloria Hallelujah&quot;&gt;...&lt;/font&gt;" style="text;html=1;strokeColor=none;fillColor=none;align=center;verticalAlign=middle;whiteSpace=wrap;rounded=0;sketch=1;fontSize=32;" parent="AhHYrD_jLXWVPU9GXJPQ-1" vertex="1">
          <mxGeometry x="496.77977186311784" y="116.375" width="88.12471482889734" height="44.0625" as="geometry" />
        </mxCell>
        <mxCell id="AhHYrD_jLXWVPU9GXJPQ-3" value="&lt;font style=&quot;font-size: 32px;&quot; data-font-src=&quot;https://fonts.googleapis.com/css?family=Gloria+Hallelujah&quot; face=&quot;Gloria Hallelujah&quot;&gt;...&lt;/font&gt;" style="text;html=1;strokeColor=none;fillColor=none;align=center;verticalAlign=middle;whiteSpace=wrap;rounded=0;sketch=1;fontSize=32;" parent="AhHYrD_jLXWVPU9GXJPQ-1" vertex="1">
          <mxGeometry x="496.77977186311784" y="233.875" width="88.12471482889734" height="44.0625" as="geometry" />
        </mxCell>
        <mxCell id="AhHYrD_jLXWVPU9GXJPQ-4" value="&lt;font style=&quot;font-size: 32px;&quot; data-font-src=&quot;https://fonts.googleapis.com/css?family=Gloria+Hallelujah&quot; face=&quot;Gloria Hallelujah&quot;&gt;...&lt;/font&gt;" style="text;html=1;strokeColor=none;fillColor=none;align=center;verticalAlign=middle;whiteSpace=wrap;rounded=0;sketch=1;fontSize=32;" parent="AhHYrD_jLXWVPU9GXJPQ-1" vertex="1">
          <mxGeometry x="496.77977186311784" y="413.0625" width="88.12471482889734" height="44.0625" as="geometry" />
        </mxCell>
        <mxCell id="AhHYrD_jLXWVPU9GXJPQ-5" value="&lt;font style=&quot;font-size: 32px;&quot; data-font-src=&quot;https://fonts.googleapis.com/css?family=Gloria+Hallelujah&quot; face=&quot;Gloria Hallelujah&quot;&gt;...&lt;/font&gt;" style="text;html=1;strokeColor=none;fillColor=none;align=center;verticalAlign=middle;whiteSpace=wrap;rounded=0;sketch=1;fontSize=32;rotation=90;" parent="AhHYrD_jLXWVPU9GXJPQ-1" vertex="1">
          <mxGeometry x="128.12471482889734" y="345.5" width="88.12471482889734" height="44.0625" as="geometry" />
        </mxCell>
        <mxCell id="AhHYrD_jLXWVPU9GXJPQ-6" value="&lt;font style=&quot;font-size: 32px;&quot; data-font-src=&quot;https://fonts.googleapis.com/css?family=Gloria+Hallelujah&quot; face=&quot;Gloria Hallelujah&quot;&gt;...&lt;/font&gt;" style="text;html=1;strokeColor=none;fillColor=none;align=center;verticalAlign=middle;whiteSpace=wrap;rounded=0;sketch=1;fontSize=32;rotation=90;" parent="AhHYrD_jLXWVPU9GXJPQ-1" vertex="1">
          <mxGeometry x="345.4990114068441" y="342.5625" width="88.12471482889734" height="44.0625" as="geometry" />
        </mxCell>
        <mxCell id="AhHYrD_jLXWVPU9GXJPQ-7" value="&lt;font style=&quot;font-size: 32px;&quot; data-font-src=&quot;https://fonts.googleapis.com/css?family=Gloria+Hallelujah&quot; face=&quot;Gloria Hallelujah&quot;&gt;...&lt;/font&gt;" style="text;html=1;strokeColor=none;fillColor=none;align=center;verticalAlign=middle;whiteSpace=wrap;rounded=0;sketch=1;fontSize=32;rotation=90;" parent="AhHYrD_jLXWVPU9GXJPQ-1" vertex="1">
          <mxGeometry x="669.3573384030418" y="345.5" width="88.12471482889734" height="44.0625" as="geometry" />
        </mxCell>
        <mxCell id="AhHYrD_jLXWVPU9GXJPQ-8" value="" style="endArrow=none;dashed=1;html=1;rounded=0;sketch=1;fontFamily=Gloria Hallelujah;fontSource=https%3A%2F%2Ffonts.googleapis.com%2Fcss%3Ffamily%3DGloria%2BHallelujah;fontSize=32;" parent="AhHYrD_jLXWVPU9GXJPQ-1" edge="1">
          <mxGeometry width="50" height="50" relative="1" as="geometry">
            <mxPoint x="268" y="500" as="sourcePoint" />
            <mxPoint x="268" y="100" as="targetPoint" />
          </mxGeometry>
        </mxCell>
        <mxCell id="AhHYrD_jLXWVPU9GXJPQ-9" value="" style="group" parent="AhHYrD_jLXWVPU9GXJPQ-1" vertex="1" connectable="0">
          <mxGeometry x="40" y="120.78125" width="232.06174904942964" height="94" as="geometry" />
        </mxCell>
        <mxCell id="AhHYrD_jLXWVPU9GXJPQ-10" value="" style="rounded=1;whiteSpace=wrap;html=1;sketch=1;" parent="AhHYrD_jLXWVPU9GXJPQ-9" vertex="1">
          <mxGeometry x="29.374904942965777" width="174.7806844106464" height="60.21875" as="geometry" />
        </mxCell>
        <mxCell id="AhHYrD_jLXWVPU9GXJPQ-11" value="&lt;font style=&quot;font-size: 20px;&quot; data-font-src=&quot;https://fonts.googleapis.com/css?family=Gloria+Hallelujah&quot; face=&quot;Gloria Hallelujah&quot;&gt;...&lt;/font&gt;" style="text;html=1;strokeColor=none;fillColor=none;align=center;verticalAlign=middle;whiteSpace=wrap;rounded=0;sketch=1;" parent="AhHYrD_jLXWVPU9GXJPQ-9" vertex="1">
          <mxGeometry x="98.40593155893535" width="88.12471482889734" height="44.0625" as="geometry" />
        </mxCell>
        <mxCell id="AhHYrD_jLXWVPU9GXJPQ-12" value="" style="shape=umlActor;verticalLabelPosition=bottom;verticalAlign=top;html=1;outlineConnect=0;sketch=1;" parent="AhHYrD_jLXWVPU9GXJPQ-9" vertex="1">
          <mxGeometry x="42.59361216730038" y="14.6875" width="16.156197718631176" height="35.25" as="geometry" />
        </mxCell>
        <mxCell id="AhHYrD_jLXWVPU9GXJPQ-13" value="&lt;font style=&quot;font-size: 18px;&quot;&gt;Slot 0, Committee 0&lt;/font&gt;" style="text;html=1;strokeColor=none;fillColor=none;align=center;verticalAlign=middle;whiteSpace=wrap;rounded=0;sketch=1;fontFamily=Gloria Hallelujah;fontSource=https%3A%2F%2Ffonts.googleapis.com%2Fcss%3Ffamily%3DGloria%2BHallelujah;fontSize=20;" parent="AhHYrD_jLXWVPU9GXJPQ-9" vertex="1">
          <mxGeometry y="49.9375" width="232.06174904942964" height="44.0625" as="geometry" />
        </mxCell>
        <mxCell id="AhHYrD_jLXWVPU9GXJPQ-14" value="" style="shape=umlActor;verticalLabelPosition=bottom;verticalAlign=top;html=1;outlineConnect=0;sketch=1;" parent="AhHYrD_jLXWVPU9GXJPQ-9" vertex="1">
          <mxGeometry x="69.03102661596958" y="14.6875" width="16.156197718631176" height="35.25" as="geometry" />
        </mxCell>
        <mxCell id="AhHYrD_jLXWVPU9GXJPQ-15" value="" style="shape=umlActor;verticalLabelPosition=bottom;verticalAlign=top;html=1;outlineConnect=0;sketch=1;" parent="AhHYrD_jLXWVPU9GXJPQ-9" vertex="1">
          <mxGeometry x="95.46844106463878" y="14.6875" width="16.156197718631176" height="35.25" as="geometry" />
        </mxCell>
        <mxCell id="AhHYrD_jLXWVPU9GXJPQ-16" value="" style="shape=umlActor;verticalLabelPosition=bottom;verticalAlign=top;html=1;outlineConnect=0;sketch=1;" parent="AhHYrD_jLXWVPU9GXJPQ-9" vertex="1">
          <mxGeometry x="173.3119391634981" y="14.6875" width="16.156197718631176" height="35.25" as="geometry" />
        </mxCell>
        <mxCell id="AhHYrD_jLXWVPU9GXJPQ-17" value="" style="group" parent="AhHYrD_jLXWVPU9GXJPQ-1" vertex="1" connectable="0">
          <mxGeometry x="40" y="236.8125" width="232.06174904942964" height="94" as="geometry" />
        </mxCell>
        <mxCell id="AhHYrD_jLXWVPU9GXJPQ-18" value="" style="rounded=1;whiteSpace=wrap;html=1;sketch=1;" parent="AhHYrD_jLXWVPU9GXJPQ-17" vertex="1">
          <mxGeometry x="29.374904942965777" width="174.7806844106464" height="60.21875" as="geometry" />
        </mxCell>
        <mxCell id="AhHYrD_jLXWVPU9GXJPQ-19" value="&lt;font style=&quot;font-size: 20px;&quot; data-font-src=&quot;https://fonts.googleapis.com/css?family=Gloria+Hallelujah&quot; face=&quot;Gloria Hallelujah&quot;&gt;...&lt;/font&gt;" style="text;html=1;strokeColor=none;fillColor=none;align=center;verticalAlign=middle;whiteSpace=wrap;rounded=0;sketch=1;" parent="AhHYrD_jLXWVPU9GXJPQ-17" vertex="1">
          <mxGeometry x="98.40593155893535" width="88.12471482889734" height="44.0625" as="geometry" />
        </mxCell>
        <mxCell id="AhHYrD_jLXWVPU9GXJPQ-20" value="" style="shape=umlActor;verticalLabelPosition=bottom;verticalAlign=top;html=1;outlineConnect=0;sketch=1;" parent="AhHYrD_jLXWVPU9GXJPQ-17" vertex="1">
          <mxGeometry x="42.59361216730038" y="14.6875" width="16.156197718631176" height="35.25" as="geometry" />
        </mxCell>
        <mxCell id="AhHYrD_jLXWVPU9GXJPQ-21" value="&lt;font style=&quot;font-size: 18px;&quot;&gt;Slot 0, Committee 1&lt;br&gt;&lt;/font&gt;" style="text;html=1;strokeColor=none;fillColor=none;align=center;verticalAlign=middle;whiteSpace=wrap;rounded=0;sketch=1;fontFamily=Gloria Hallelujah;fontSource=https%3A%2F%2Ffonts.googleapis.com%2Fcss%3Ffamily%3DGloria%2BHallelujah;fontSize=20;" parent="AhHYrD_jLXWVPU9GXJPQ-17" vertex="1">
          <mxGeometry y="49.9375" width="232.06174904942964" height="44.0625" as="geometry" />
        </mxCell>
        <mxCell id="AhHYrD_jLXWVPU9GXJPQ-22" value="" style="shape=umlActor;verticalLabelPosition=bottom;verticalAlign=top;html=1;outlineConnect=0;sketch=1;" parent="AhHYrD_jLXWVPU9GXJPQ-17" vertex="1">
          <mxGeometry x="69.03102661596958" y="14.6875" width="16.156197718631176" height="35.25" as="geometry" />
        </mxCell>
        <mxCell id="AhHYrD_jLXWVPU9GXJPQ-23" value="" style="shape=umlActor;verticalLabelPosition=bottom;verticalAlign=top;html=1;outlineConnect=0;sketch=1;" parent="AhHYrD_jLXWVPU9GXJPQ-17" vertex="1">
          <mxGeometry x="95.46844106463878" y="14.6875" width="16.156197718631176" height="35.25" as="geometry" />
        </mxCell>
        <mxCell id="AhHYrD_jLXWVPU9GXJPQ-24" value="" style="shape=umlActor;verticalLabelPosition=bottom;verticalAlign=top;html=1;outlineConnect=0;sketch=1;" parent="AhHYrD_jLXWVPU9GXJPQ-17" vertex="1">
          <mxGeometry x="173.3119391634981" y="14.6875" width="16.156197718631176" height="35.25" as="geometry" />
        </mxCell>
        <mxCell id="AhHYrD_jLXWVPU9GXJPQ-25" value="" style="group" parent="AhHYrD_jLXWVPU9GXJPQ-1" vertex="1" connectable="0">
          <mxGeometry x="40" y="416" width="232.06174904942964" height="94" as="geometry" />
        </mxCell>
        <mxCell id="AhHYrD_jLXWVPU9GXJPQ-26" value="" style="rounded=1;whiteSpace=wrap;html=1;sketch=1;" parent="AhHYrD_jLXWVPU9GXJPQ-25" vertex="1">
          <mxGeometry x="29.374904942965777" width="174.7806844106464" height="60.21875" as="geometry" />
        </mxCell>
        <mxCell id="AhHYrD_jLXWVPU9GXJPQ-27" value="&lt;font style=&quot;font-size: 20px;&quot; data-font-src=&quot;https://fonts.googleapis.com/css?family=Gloria+Hallelujah&quot; face=&quot;Gloria Hallelujah&quot;&gt;...&lt;/font&gt;" style="text;html=1;strokeColor=none;fillColor=none;align=center;verticalAlign=middle;whiteSpace=wrap;rounded=0;sketch=1;" parent="AhHYrD_jLXWVPU9GXJPQ-25" vertex="1">
          <mxGeometry x="98.40593155893535" width="88.12471482889734" height="44.0625" as="geometry" />
        </mxCell>
        <mxCell id="AhHYrD_jLXWVPU9GXJPQ-28" value="" style="shape=umlActor;verticalLabelPosition=bottom;verticalAlign=top;html=1;outlineConnect=0;sketch=1;" parent="AhHYrD_jLXWVPU9GXJPQ-25" vertex="1">
          <mxGeometry x="42.59361216730038" y="14.6875" width="16.156197718631176" height="35.25" as="geometry" />
        </mxCell>
        <mxCell id="AhHYrD_jLXWVPU9GXJPQ-29" value="&lt;font style=&quot;font-size: 18px;&quot;&gt;Slot 0, Committee (N-1)&lt;br&gt;&lt;/font&gt;" style="text;html=1;strokeColor=none;fillColor=none;align=center;verticalAlign=middle;whiteSpace=wrap;rounded=0;sketch=1;fontFamily=Gloria Hallelujah;fontSource=https%3A%2F%2Ffonts.googleapis.com%2Fcss%3Ffamily%3DGloria%2BHallelujah;fontSize=20;" parent="AhHYrD_jLXWVPU9GXJPQ-25" vertex="1">
          <mxGeometry y="49.9375" width="232.06174904942964" height="44.0625" as="geometry" />
        </mxCell>
        <mxCell id="AhHYrD_jLXWVPU9GXJPQ-30" value="" style="shape=umlActor;verticalLabelPosition=bottom;verticalAlign=top;html=1;outlineConnect=0;sketch=1;" parent="AhHYrD_jLXWVPU9GXJPQ-25" vertex="1">
          <mxGeometry x="69.03102661596958" y="14.6875" width="16.156197718631176" height="35.25" as="geometry" />
        </mxCell>
        <mxCell id="AhHYrD_jLXWVPU9GXJPQ-31" value="" style="shape=umlActor;verticalLabelPosition=bottom;verticalAlign=top;html=1;outlineConnect=0;sketch=1;" parent="AhHYrD_jLXWVPU9GXJPQ-25" vertex="1">
          <mxGeometry x="95.46844106463878" y="14.6875" width="16.156197718631176" height="35.25" as="geometry" />
        </mxCell>
        <mxCell id="AhHYrD_jLXWVPU9GXJPQ-32" value="" style="shape=umlActor;verticalLabelPosition=bottom;verticalAlign=top;html=1;outlineConnect=0;sketch=1;" parent="AhHYrD_jLXWVPU9GXJPQ-25" vertex="1">
          <mxGeometry x="173.3119391634981" y="14.6875" width="16.156197718631176" height="35.25" as="geometry" />
        </mxCell>
        <mxCell id="AhHYrD_jLXWVPU9GXJPQ-33" value="" style="group" parent="AhHYrD_jLXWVPU9GXJPQ-1" vertex="1" connectable="0">
          <mxGeometry x="261.0461596958175" y="416" width="232.06174904942964" height="94" as="geometry" />
        </mxCell>
        <mxCell id="AhHYrD_jLXWVPU9GXJPQ-34" value="" style="rounded=1;whiteSpace=wrap;html=1;sketch=1;" parent="AhHYrD_jLXWVPU9GXJPQ-33" vertex="1">
          <mxGeometry x="28.640532319391635" width="174.7806844106464" height="60.21875" as="geometry" />
        </mxCell>
        <mxCell id="AhHYrD_jLXWVPU9GXJPQ-35" value="&lt;font style=&quot;font-size: 20px;&quot; data-font-src=&quot;https://fonts.googleapis.com/css?family=Gloria+Hallelujah&quot; face=&quot;Gloria Hallelujah&quot;&gt;...&lt;/font&gt;" style="text;html=1;strokeColor=none;fillColor=none;align=center;verticalAlign=middle;whiteSpace=wrap;rounded=0;sketch=1;" parent="AhHYrD_jLXWVPU9GXJPQ-33" vertex="1">
          <mxGeometry x="97.67155893536122" width="88.12471482889734" height="44.0625" as="geometry" />
        </mxCell>
        <mxCell id="AhHYrD_jLXWVPU9GXJPQ-36" value="" style="shape=umlActor;verticalLabelPosition=bottom;verticalAlign=top;html=1;outlineConnect=0;sketch=1;" parent="AhHYrD_jLXWVPU9GXJPQ-33" vertex="1">
          <mxGeometry x="41.85923954372623" y="14.6875" width="16.156197718631176" height="35.25" as="geometry" />
        </mxCell>
        <mxCell id="AhHYrD_jLXWVPU9GXJPQ-37" value="" style="shape=umlActor;verticalLabelPosition=bottom;verticalAlign=top;html=1;outlineConnect=0;sketch=1;" parent="AhHYrD_jLXWVPU9GXJPQ-33" vertex="1">
          <mxGeometry x="68.29665399239543" y="14.6875" width="16.156197718631176" height="35.25" as="geometry" />
        </mxCell>
        <mxCell id="AhHYrD_jLXWVPU9GXJPQ-38" value="" style="shape=umlActor;verticalLabelPosition=bottom;verticalAlign=top;html=1;outlineConnect=0;sketch=1;" parent="AhHYrD_jLXWVPU9GXJPQ-33" vertex="1">
          <mxGeometry x="94.73406844106464" y="14.6875" width="16.156197718631176" height="35.25" as="geometry" />
        </mxCell>
        <mxCell id="AhHYrD_jLXWVPU9GXJPQ-39" value="" style="shape=umlActor;verticalLabelPosition=bottom;verticalAlign=top;html=1;outlineConnect=0;sketch=1;" parent="AhHYrD_jLXWVPU9GXJPQ-33" vertex="1">
          <mxGeometry x="172.57756653992394" y="14.6875" width="16.156197718631176" height="35.25" as="geometry" />
        </mxCell>
        <mxCell id="AhHYrD_jLXWVPU9GXJPQ-40" value="&lt;font style=&quot;font-size: 18px;&quot;&gt;Slot 1, Committee (N-1)&lt;br&gt;&lt;/font&gt;" style="text;html=1;strokeColor=none;fillColor=none;align=center;verticalAlign=middle;whiteSpace=wrap;rounded=0;sketch=1;fontFamily=Gloria Hallelujah;fontSource=https%3A%2F%2Ffonts.googleapis.com%2Fcss%3Ffamily%3DGloria%2BHallelujah;fontSize=20;" parent="AhHYrD_jLXWVPU9GXJPQ-33" vertex="1">
          <mxGeometry y="49.9375" width="232.06174904942964" height="44.0625" as="geometry" />
        </mxCell>
        <mxCell id="AhHYrD_jLXWVPU9GXJPQ-41" value="" style="group" parent="AhHYrD_jLXWVPU9GXJPQ-1" vertex="1" connectable="0">
          <mxGeometry x="261.0461596958175" y="236.8125" width="232.06174904942964" height="94" as="geometry" />
        </mxCell>
        <mxCell id="AhHYrD_jLXWVPU9GXJPQ-42" value="" style="rounded=1;whiteSpace=wrap;html=1;sketch=1;" parent="AhHYrD_jLXWVPU9GXJPQ-41" vertex="1">
          <mxGeometry x="29.374904942965777" width="174.7806844106464" height="60.21875" as="geometry" />
        </mxCell>
        <mxCell id="AhHYrD_jLXWVPU9GXJPQ-43" value="&lt;font style=&quot;font-size: 20px;&quot; data-font-src=&quot;https://fonts.googleapis.com/css?family=Gloria+Hallelujah&quot; face=&quot;Gloria Hallelujah&quot;&gt;...&lt;/font&gt;" style="text;html=1;strokeColor=none;fillColor=none;align=center;verticalAlign=middle;whiteSpace=wrap;rounded=0;sketch=1;" parent="AhHYrD_jLXWVPU9GXJPQ-41" vertex="1">
          <mxGeometry x="98.40593155893535" width="88.12471482889734" height="44.0625" as="geometry" />
        </mxCell>
        <mxCell id="AhHYrD_jLXWVPU9GXJPQ-44" value="" style="shape=umlActor;verticalLabelPosition=bottom;verticalAlign=top;html=1;outlineConnect=0;sketch=1;" parent="AhHYrD_jLXWVPU9GXJPQ-41" vertex="1">
          <mxGeometry x="42.59361216730038" y="14.6875" width="16.156197718631176" height="35.25" as="geometry" />
        </mxCell>
        <mxCell id="AhHYrD_jLXWVPU9GXJPQ-45" value="&lt;font style=&quot;font-size: 18px;&quot;&gt;Slot 1, Committee 1&lt;br&gt;&lt;/font&gt;" style="text;html=1;strokeColor=none;fillColor=none;align=center;verticalAlign=middle;whiteSpace=wrap;rounded=0;sketch=1;fontFamily=Gloria Hallelujah;fontSource=https%3A%2F%2Ffonts.googleapis.com%2Fcss%3Ffamily%3DGloria%2BHallelujah;fontSize=20;" parent="AhHYrD_jLXWVPU9GXJPQ-41" vertex="1">
          <mxGeometry y="49.9375" width="232.06174904942964" height="44.0625" as="geometry" />
        </mxCell>
        <mxCell id="AhHYrD_jLXWVPU9GXJPQ-46" value="" style="shape=umlActor;verticalLabelPosition=bottom;verticalAlign=top;html=1;outlineConnect=0;sketch=1;" parent="AhHYrD_jLXWVPU9GXJPQ-41" vertex="1">
          <mxGeometry x="69.03102661596958" y="14.6875" width="16.156197718631176" height="35.25" as="geometry" />
        </mxCell>
        <mxCell id="AhHYrD_jLXWVPU9GXJPQ-47" value="" style="shape=umlActor;verticalLabelPosition=bottom;verticalAlign=top;html=1;outlineConnect=0;sketch=1;" parent="AhHYrD_jLXWVPU9GXJPQ-41" vertex="1">
          <mxGeometry x="95.46844106463878" y="14.6875" width="16.156197718631176" height="35.25" as="geometry" />
        </mxCell>
        <mxCell id="AhHYrD_jLXWVPU9GXJPQ-48" value="" style="shape=umlActor;verticalLabelPosition=bottom;verticalAlign=top;html=1;outlineConnect=0;sketch=1;" parent="AhHYrD_jLXWVPU9GXJPQ-41" vertex="1">
          <mxGeometry x="173.3119391634981" y="14.6875" width="16.156197718631176" height="35.25" as="geometry" />
        </mxCell>
        <mxCell id="AhHYrD_jLXWVPU9GXJPQ-49" value="" style="group" parent="AhHYrD_jLXWVPU9GXJPQ-1" vertex="1" connectable="0">
          <mxGeometry x="261.0461596958175" y="120.78125" width="232.06174904942964" height="94" as="geometry" />
        </mxCell>
        <mxCell id="AhHYrD_jLXWVPU9GXJPQ-50" value="" style="rounded=1;whiteSpace=wrap;html=1;sketch=1;" parent="AhHYrD_jLXWVPU9GXJPQ-49" vertex="1">
          <mxGeometry x="29.374904942965777" width="174.7806844106464" height="60.21875" as="geometry" />
        </mxCell>
        <mxCell id="AhHYrD_jLXWVPU9GXJPQ-51" value="&lt;font style=&quot;font-size: 20px;&quot; data-font-src=&quot;https://fonts.googleapis.com/css?family=Gloria+Hallelujah&quot; face=&quot;Gloria Hallelujah&quot;&gt;...&lt;/font&gt;" style="text;html=1;strokeColor=none;fillColor=none;align=center;verticalAlign=middle;whiteSpace=wrap;rounded=0;sketch=1;" parent="AhHYrD_jLXWVPU9GXJPQ-49" vertex="1">
          <mxGeometry x="98.40593155893535" width="88.12471482889734" height="44.0625" as="geometry" />
        </mxCell>
        <mxCell id="AhHYrD_jLXWVPU9GXJPQ-52" value="" style="shape=umlActor;verticalLabelPosition=bottom;verticalAlign=top;html=1;outlineConnect=0;sketch=1;" parent="AhHYrD_jLXWVPU9GXJPQ-49" vertex="1">
          <mxGeometry x="42.59361216730038" y="14.6875" width="16.156197718631176" height="35.25" as="geometry" />
        </mxCell>
        <mxCell id="AhHYrD_jLXWVPU9GXJPQ-53" value="&lt;font style=&quot;font-size: 18px;&quot;&gt;Slot 1, Committee 0&lt;/font&gt;" style="text;html=1;strokeColor=none;fillColor=none;align=center;verticalAlign=middle;whiteSpace=wrap;rounded=0;sketch=1;fontFamily=Gloria Hallelujah;fontSource=https%3A%2F%2Ffonts.googleapis.com%2Fcss%3Ffamily%3DGloria%2BHallelujah;fontSize=20;" parent="AhHYrD_jLXWVPU9GXJPQ-49" vertex="1">
          <mxGeometry y="49.9375" width="232.06174904942964" height="44.0625" as="geometry" />
        </mxCell>
        <mxCell id="AhHYrD_jLXWVPU9GXJPQ-54" value="" style="shape=umlActor;verticalLabelPosition=bottom;verticalAlign=top;html=1;outlineConnect=0;sketch=1;" parent="AhHYrD_jLXWVPU9GXJPQ-49" vertex="1">
          <mxGeometry x="69.03102661596958" y="14.6875" width="16.156197718631176" height="35.25" as="geometry" />
        </mxCell>
        <mxCell id="AhHYrD_jLXWVPU9GXJPQ-55" value="" style="shape=umlActor;verticalLabelPosition=bottom;verticalAlign=top;html=1;outlineConnect=0;sketch=1;" parent="AhHYrD_jLXWVPU9GXJPQ-49" vertex="1">
          <mxGeometry x="95.46844106463878" y="14.6875" width="16.156197718631176" height="35.25" as="geometry" />
        </mxCell>
        <mxCell id="AhHYrD_jLXWVPU9GXJPQ-56" value="" style="shape=umlActor;verticalLabelPosition=bottom;verticalAlign=top;html=1;outlineConnect=0;sketch=1;" parent="AhHYrD_jLXWVPU9GXJPQ-49" vertex="1">
          <mxGeometry x="173.3119391634981" y="14.6875" width="16.156197718631176" height="35.25" as="geometry" />
        </mxCell>
        <mxCell id="AhHYrD_jLXWVPU9GXJPQ-57" value="" style="group" parent="AhHYrD_jLXWVPU9GXJPQ-1" vertex="1" connectable="0">
          <mxGeometry x="580.4982509505703" y="416" width="232.06174904942964" height="94" as="geometry" />
        </mxCell>
        <mxCell id="AhHYrD_jLXWVPU9GXJPQ-58" value="" style="rounded=1;whiteSpace=wrap;html=1;sketch=1;" parent="AhHYrD_jLXWVPU9GXJPQ-57" vertex="1">
          <mxGeometry x="28.640532319391635" width="174.7806844106464" height="60.21875" as="geometry" />
        </mxCell>
        <mxCell id="AhHYrD_jLXWVPU9GXJPQ-59" value="&lt;font style=&quot;font-size: 20px;&quot; data-font-src=&quot;https://fonts.googleapis.com/css?family=Gloria+Hallelujah&quot; face=&quot;Gloria Hallelujah&quot;&gt;...&lt;/font&gt;" style="text;html=1;strokeColor=none;fillColor=none;align=center;verticalAlign=middle;whiteSpace=wrap;rounded=0;sketch=1;" parent="AhHYrD_jLXWVPU9GXJPQ-57" vertex="1">
          <mxGeometry x="97.67155893536122" width="88.12471482889734" height="44.0625" as="geometry" />
        </mxCell>
        <mxCell id="AhHYrD_jLXWVPU9GXJPQ-60" value="" style="shape=umlActor;verticalLabelPosition=bottom;verticalAlign=top;html=1;outlineConnect=0;sketch=1;" parent="AhHYrD_jLXWVPU9GXJPQ-57" vertex="1">
          <mxGeometry x="41.85923954372623" y="14.6875" width="16.156197718631176" height="35.25" as="geometry" />
        </mxCell>
        <mxCell id="AhHYrD_jLXWVPU9GXJPQ-61" value="" style="shape=umlActor;verticalLabelPosition=bottom;verticalAlign=top;html=1;outlineConnect=0;sketch=1;" parent="AhHYrD_jLXWVPU9GXJPQ-57" vertex="1">
          <mxGeometry x="68.29665399239543" y="14.6875" width="16.156197718631176" height="35.25" as="geometry" />
        </mxCell>
        <mxCell id="AhHYrD_jLXWVPU9GXJPQ-62" value="" style="shape=umlActor;verticalLabelPosition=bottom;verticalAlign=top;html=1;outlineConnect=0;sketch=1;" parent="AhHYrD_jLXWVPU9GXJPQ-57" vertex="1">
          <mxGeometry x="94.73406844106464" y="14.6875" width="16.156197718631176" height="35.25" as="geometry" />
        </mxCell>
        <mxCell id="AhHYrD_jLXWVPU9GXJPQ-63" value="" style="shape=umlActor;verticalLabelPosition=bottom;verticalAlign=top;html=1;outlineConnect=0;sketch=1;" parent="AhHYrD_jLXWVPU9GXJPQ-57" vertex="1">
          <mxGeometry x="172.57756653992394" y="14.6875" width="16.156197718631176" height="35.25" as="geometry" />
        </mxCell>
        <mxCell id="AhHYrD_jLXWVPU9GXJPQ-64" value="&lt;font style=&quot;font-size: 18px;&quot;&gt;Slot 31, Committee (N-1)&lt;br&gt;&lt;/font&gt;" style="text;html=1;strokeColor=none;fillColor=none;align=center;verticalAlign=middle;whiteSpace=wrap;rounded=0;sketch=1;fontFamily=Gloria Hallelujah;fontSource=https%3A%2F%2Ffonts.googleapis.com%2Fcss%3Ffamily%3DGloria%2BHallelujah;fontSize=20;" parent="AhHYrD_jLXWVPU9GXJPQ-57" vertex="1">
          <mxGeometry y="49.9375" width="232.06174904942964" height="44.0625" as="geometry" />
        </mxCell>
        <mxCell id="AhHYrD_jLXWVPU9GXJPQ-65" value="" style="group" parent="AhHYrD_jLXWVPU9GXJPQ-1" vertex="1" connectable="0">
          <mxGeometry x="580.4982509505703" y="236.8125" width="232.06174904942964" height="94" as="geometry" />
        </mxCell>
        <mxCell id="AhHYrD_jLXWVPU9GXJPQ-66" value="" style="rounded=1;whiteSpace=wrap;html=1;sketch=1;" parent="AhHYrD_jLXWVPU9GXJPQ-65" vertex="1">
          <mxGeometry x="33.0467680608365" width="174.7806844106464" height="60.21875" as="geometry" />
        </mxCell>
        <mxCell id="AhHYrD_jLXWVPU9GXJPQ-67" value="&lt;font style=&quot;font-size: 20px;&quot; data-font-src=&quot;https://fonts.googleapis.com/css?family=Gloria+Hallelujah&quot; face=&quot;Gloria Hallelujah&quot;&gt;...&lt;/font&gt;" style="text;html=1;strokeColor=none;fillColor=none;align=center;verticalAlign=middle;whiteSpace=wrap;rounded=0;sketch=1;" parent="AhHYrD_jLXWVPU9GXJPQ-65" vertex="1">
          <mxGeometry x="102.07779467680608" width="88.12471482889734" height="44.0625" as="geometry" />
        </mxCell>
        <mxCell id="AhHYrD_jLXWVPU9GXJPQ-68" value="" style="shape=umlActor;verticalLabelPosition=bottom;verticalAlign=top;html=1;outlineConnect=0;sketch=1;" parent="AhHYrD_jLXWVPU9GXJPQ-65" vertex="1">
          <mxGeometry x="46.2654752851711" y="14.6875" width="16.156197718631176" height="35.25" as="geometry" />
        </mxCell>
        <mxCell id="AhHYrD_jLXWVPU9GXJPQ-69" value="" style="shape=umlActor;verticalLabelPosition=bottom;verticalAlign=top;html=1;outlineConnect=0;sketch=1;" parent="AhHYrD_jLXWVPU9GXJPQ-65" vertex="1">
          <mxGeometry x="72.7028897338403" y="14.6875" width="16.156197718631176" height="35.25" as="geometry" />
        </mxCell>
        <mxCell id="AhHYrD_jLXWVPU9GXJPQ-70" value="" style="shape=umlActor;verticalLabelPosition=bottom;verticalAlign=top;html=1;outlineConnect=0;sketch=1;" parent="AhHYrD_jLXWVPU9GXJPQ-65" vertex="1">
          <mxGeometry x="99.1403041825095" y="14.6875" width="16.156197718631176" height="35.25" as="geometry" />
        </mxCell>
        <mxCell id="AhHYrD_jLXWVPU9GXJPQ-71" value="" style="shape=umlActor;verticalLabelPosition=bottom;verticalAlign=top;html=1;outlineConnect=0;sketch=1;" parent="AhHYrD_jLXWVPU9GXJPQ-65" vertex="1">
          <mxGeometry x="176.9838022813688" y="14.6875" width="16.156197718631176" height="35.25" as="geometry" />
        </mxCell>
        <mxCell id="AhHYrD_jLXWVPU9GXJPQ-72" value="&lt;font style=&quot;font-size: 18px;&quot;&gt;Slot 31, Committee 1&lt;br&gt;&lt;/font&gt;" style="text;html=1;strokeColor=none;fillColor=none;align=center;verticalAlign=middle;whiteSpace=wrap;rounded=0;sketch=1;fontFamily=Gloria Hallelujah;fontSource=https%3A%2F%2Ffonts.googleapis.com%2Fcss%3Ffamily%3DGloria%2BHallelujah;fontSize=20;" parent="AhHYrD_jLXWVPU9GXJPQ-65" vertex="1">
          <mxGeometry y="49.9375" width="232.06174904942964" height="44.0625" as="geometry" />
        </mxCell>
        <mxCell id="AhHYrD_jLXWVPU9GXJPQ-73" value="" style="group" parent="AhHYrD_jLXWVPU9GXJPQ-1" vertex="1" connectable="0">
          <mxGeometry x="580.4982509505703" y="120.78125" width="232.06174904942964" height="94" as="geometry" />
        </mxCell>
        <mxCell id="AhHYrD_jLXWVPU9GXJPQ-74" value="" style="rounded=1;whiteSpace=wrap;html=1;sketch=1;" parent="AhHYrD_jLXWVPU9GXJPQ-73" vertex="1">
          <mxGeometry x="33.0467680608365" width="174.7806844106464" height="60.21875" as="geometry" />
        </mxCell>
        <mxCell id="AhHYrD_jLXWVPU9GXJPQ-75" value="&lt;font style=&quot;font-size: 20px;&quot; data-font-src=&quot;https://fonts.googleapis.com/css?family=Gloria+Hallelujah&quot; face=&quot;Gloria Hallelujah&quot;&gt;...&lt;/font&gt;" style="text;html=1;strokeColor=none;fillColor=none;align=center;verticalAlign=middle;whiteSpace=wrap;rounded=0;sketch=1;" parent="AhHYrD_jLXWVPU9GXJPQ-73" vertex="1">
          <mxGeometry x="102.07779467680608" width="88.12471482889734" height="44.0625" as="geometry" />
        </mxCell>
        <mxCell id="AhHYrD_jLXWVPU9GXJPQ-76" value="" style="shape=umlActor;verticalLabelPosition=bottom;verticalAlign=top;html=1;outlineConnect=0;sketch=1;" parent="AhHYrD_jLXWVPU9GXJPQ-73" vertex="1">
          <mxGeometry x="46.2654752851711" y="14.6875" width="16.156197718631176" height="35.25" as="geometry" />
        </mxCell>
        <mxCell id="AhHYrD_jLXWVPU9GXJPQ-77" value="" style="shape=umlActor;verticalLabelPosition=bottom;verticalAlign=top;html=1;outlineConnect=0;sketch=1;" parent="AhHYrD_jLXWVPU9GXJPQ-73" vertex="1">
          <mxGeometry x="72.7028897338403" y="14.6875" width="16.156197718631176" height="35.25" as="geometry" />
        </mxCell>
        <mxCell id="AhHYrD_jLXWVPU9GXJPQ-78" value="" style="shape=umlActor;verticalLabelPosition=bottom;verticalAlign=top;html=1;outlineConnect=0;sketch=1;" parent="AhHYrD_jLXWVPU9GXJPQ-73" vertex="1">
          <mxGeometry x="99.1403041825095" y="14.6875" width="16.156197718631176" height="35.25" as="geometry" />
        </mxCell>
        <mxCell id="AhHYrD_jLXWVPU9GXJPQ-79" value="" style="shape=umlActor;verticalLabelPosition=bottom;verticalAlign=top;html=1;outlineConnect=0;sketch=1;" parent="AhHYrD_jLXWVPU9GXJPQ-73" vertex="1">
          <mxGeometry x="176.9838022813688" y="14.6875" width="16.156197718631176" height="35.25" as="geometry" />
        </mxCell>
        <mxCell id="AhHYrD_jLXWVPU9GXJPQ-80" value="&lt;font style=&quot;font-size: 18px;&quot;&gt;Slot 31, Committee 0&lt;/font&gt;" style="text;html=1;strokeColor=none;fillColor=none;align=center;verticalAlign=middle;whiteSpace=wrap;rounded=0;sketch=1;fontFamily=Gloria Hallelujah;fontSource=https%3A%2F%2Ffonts.googleapis.com%2Fcss%3Ffamily%3DGloria%2BHallelujah;fontSize=20;" parent="AhHYrD_jLXWVPU9GXJPQ-73" vertex="1">
          <mxGeometry y="49.9375" width="232.06174904942964" height="44.0625" as="geometry" />
        </mxCell>
        <mxCell id="AhHYrD_jLXWVPU9GXJPQ-83" value="" style="endArrow=classic;html=1;rounded=0;shadow=0;sketch=1;fontFamily=Gloria Hallelujah;fontSource=https%3A%2F%2Ffonts.googleapis.com%2Fcss%3Ffamily%3DGloria%2BHallelujah;fontSize=32;" parent="AhHYrD_jLXWVPU9GXJPQ-1" edge="1">
          <mxGeometry width="50" height="50" relative="1" as="geometry">
            <mxPoint x="72.31239543726235" y="88.46875" as="sourcePoint" />
            <mxPoint x="784.6538403041825" y="88.46875" as="targetPoint" />
          </mxGeometry>
        </mxCell>
        <mxCell id="AhHYrD_jLXWVPU9GXJPQ-84" value="&lt;font style=&quot;font-size: 20px;&quot;&gt;Progress through the epoch&lt;/font&gt;" style="text;html=1;strokeColor=none;fillColor=none;align=center;verticalAlign=middle;whiteSpace=wrap;rounded=0;sketch=1;fontFamily=Gloria Hallelujah;fontSource=https%3A%2F%2Ffonts.googleapis.com%2Fcss%3Ffamily%3DGloria%2BHallelujah;fontSize=32;" parent="AhHYrD_jLXWVPU9GXJPQ-1" vertex="1">
          <mxGeometry x="116.37475285171102" y="48" width="625.685475285171" height="44.0625" as="geometry" />
        </mxCell>
        <mxCell id="4IdpGxViCFuvlN3iOuEt-3" value="" style="endArrow=none;dashed=1;html=1;rounded=0;sketch=1;fontFamily=Gloria Hallelujah;fontSource=https%3A%2F%2Ffonts.googleapis.com%2Fcss%3Ffamily%3DGloria%2BHallelujah;fontSize=32;" parent="AhHYrD_jLXWVPU9GXJPQ-1" edge="1">
          <mxGeometry width="50" height="50" relative="1" as="geometry">
            <mxPoint x="583" y="500" as="sourcePoint" />
            <mxPoint x="583" y="100" as="targetPoint" />
          </mxGeometry>
        </mxCell>
      </root>
    </mxGraphModel>
  </diagram>
  <diagram id="BfNy3oxiuL4KktsAiy66" name="selection">
    <mxGraphModel dx="1422" dy="752" grid="1" gridSize="10" guides="1" tooltips="1" connect="1" arrows="1" fold="1" page="1" pageScale="1" pageWidth="850" pageHeight="1100" math="0" shadow="0">
      <root>
        <mxCell id="0" />
        <mxCell id="1" parent="0" />
        <mxCell id="TckV5BObMm-c08SOVLww-2" value="" style="curved=1;endArrow=classic;html=1;rounded=0;sketch=1;" edge="1" parent="1">
          <mxGeometry width="50" height="50" relative="1" as="geometry">
            <mxPoint x="226" y="96" as="sourcePoint" />
            <mxPoint x="180" y="120" as="targetPoint" />
            <Array as="points">
              <mxPoint x="204" y="120" />
              <mxPoint x="204" y="94" />
            </Array>
          </mxGeometry>
        </mxCell>
        <mxCell id="TckV5BObMm-c08SOVLww-3" value="&lt;font style=&quot;font-size: 16px;&quot; data-font-src=&quot;https://fonts.googleapis.com/css?family=Gloria+Hallelujah&quot; face=&quot;Gloria Hallelujah&quot;&gt;Shuffled list of validators&lt;br&gt;&lt;/font&gt;" style="text;html=1;strokeColor=none;fillColor=none;align=center;verticalAlign=middle;whiteSpace=wrap;rounded=0;sketch=1;" vertex="1" parent="1">
          <mxGeometry x="200" y="70" width="250" height="30" as="geometry" />
        </mxCell>
        <mxCell id="TckV5BObMm-c08SOVLww-4" value="" style="endArrow=none;html=1;rounded=0;fontFamily=Gloria Hallelujah;fontSource=https%3A%2F%2Ffonts.googleapis.com%2Fcss%3Ffamily%3DGloria%2BHallelujah;fontSize=16;sketch=1;" edge="1" parent="1">
          <mxGeometry width="50" height="50" relative="1" as="geometry">
            <mxPoint x="40" y="140" as="sourcePoint" />
            <mxPoint x="40" y="120" as="targetPoint" />
          </mxGeometry>
        </mxCell>
        <mxCell id="TckV5BObMm-c08SOVLww-5" value="" style="endArrow=none;html=1;rounded=0;fontFamily=Gloria Hallelujah;fontSource=https%3A%2F%2Ffonts.googleapis.com%2Fcss%3Ffamily%3DGloria%2BHallelujah;fontSize=16;sketch=1;" edge="1" parent="1">
          <mxGeometry width="50" height="50" relative="1" as="geometry">
            <mxPoint x="800" y="140" as="sourcePoint" />
            <mxPoint x="800" y="120" as="targetPoint" />
          </mxGeometry>
        </mxCell>
        <mxCell id="TckV5BObMm-c08SOVLww-6" value="" style="endArrow=none;html=1;rounded=0;fontFamily=Gloria Hallelujah;fontSource=https%3A%2F%2Ffonts.googleapis.com%2Fcss%3Ffamily%3DGloria%2BHallelujah;fontSize=16;sketch=1;" edge="1" parent="1">
          <mxGeometry width="50" height="50" relative="1" as="geometry">
            <mxPoint x="40" y="120" as="sourcePoint" />
            <mxPoint x="320" y="120" as="targetPoint" />
          </mxGeometry>
        </mxCell>
        <mxCell id="TckV5BObMm-c08SOVLww-7" value="" style="endArrow=none;html=1;rounded=0;fontFamily=Gloria Hallelujah;fontSource=https%3A%2F%2Ffonts.googleapis.com%2Fcss%3Ffamily%3DGloria%2BHallelujah;fontSize=16;sketch=1;" edge="1" parent="1">
          <mxGeometry width="50" height="50" relative="1" as="geometry">
            <mxPoint x="520" y="119.99999999999989" as="sourcePoint" />
            <mxPoint x="800.0000000000002" y="119.99999999999989" as="targetPoint" />
          </mxGeometry>
        </mxCell>
        <mxCell id="TckV5BObMm-c08SOVLww-8" value="" style="endArrow=none;html=1;rounded=0;fontFamily=Gloria Hallelujah;fontSource=https%3A%2F%2Ffonts.googleapis.com%2Fcss%3Ffamily%3DGloria%2BHallelujah;fontSize=16;sketch=1;" edge="1" parent="1">
          <mxGeometry width="50" height="50" relative="1" as="geometry">
            <mxPoint x="40.00000000000023" y="139.9999999999999" as="sourcePoint" />
            <mxPoint x="320" y="139.9999999999999" as="targetPoint" />
          </mxGeometry>
        </mxCell>
        <mxCell id="TckV5BObMm-c08SOVLww-9" value="" style="endArrow=none;html=1;rounded=0;fontFamily=Gloria Hallelujah;fontSource=https%3A%2F%2Ffonts.googleapis.com%2Fcss%3Ffamily%3DGloria%2BHallelujah;fontSize=16;sketch=1;" edge="1" parent="1">
          <mxGeometry width="50" height="50" relative="1" as="geometry">
            <mxPoint x="520" y="139.9999999999999" as="sourcePoint" />
            <mxPoint x="800.0000000000002" y="139.9999999999999" as="targetPoint" />
          </mxGeometry>
        </mxCell>
        <mxCell id="TckV5BObMm-c08SOVLww-10" value="" style="endArrow=none;html=1;rounded=0;fontFamily=Gloria Hallelujah;fontSource=https%3A%2F%2Ffonts.googleapis.com%2Fcss%3Ffamily%3DGloria%2BHallelujah;fontSize=16;sketch=1;dashed=1;jumpStyle=none;" edge="1" parent="1">
          <mxGeometry width="50" height="50" relative="1" as="geometry">
            <mxPoint x="320" y="120" as="sourcePoint" />
            <mxPoint x="520" y="120" as="targetPoint" />
          </mxGeometry>
        </mxCell>
        <mxCell id="TckV5BObMm-c08SOVLww-11" value="" style="endArrow=none;html=1;rounded=0;fontFamily=Gloria Hallelujah;fontSource=https%3A%2F%2Ffonts.googleapis.com%2Fcss%3Ffamily%3DGloria%2BHallelujah;fontSize=16;sketch=1;dashed=1;" edge="1" parent="1">
          <mxGeometry width="50" height="50" relative="1" as="geometry">
            <mxPoint x="320.0000000000002" y="139.9999999999999" as="sourcePoint" />
            <mxPoint x="520.0000000000002" y="139.9999999999999" as="targetPoint" />
          </mxGeometry>
        </mxCell>
        <mxCell id="TckV5BObMm-c08SOVLww-13" value="&lt;font style=&quot;font-size: 12px;&quot; data-font-src=&quot;https://fonts.googleapis.com/css?family=Gloria+Hallelujah&quot; face=&quot;Gloria Hallelujah&quot;&gt;Committee 0&lt;br&gt;&lt;/font&gt;" style="text;html=1;strokeColor=none;fillColor=none;align=center;verticalAlign=middle;whiteSpace=wrap;rounded=0;sketch=1;" vertex="1" parent="1">
          <mxGeometry x="45" y="143" width="130" height="30" as="geometry" />
        </mxCell>
        <mxCell id="TckV5BObMm-c08SOVLww-14" value="&lt;font style=&quot;font-size: 12px;&quot; data-font-src=&quot;https://fonts.googleapis.com/css?family=Gloria+Hallelujah&quot; face=&quot;Gloria Hallelujah&quot;&gt;Committee 1&lt;br&gt;&lt;/font&gt;" style="text;html=1;strokeColor=none;fillColor=none;align=center;verticalAlign=middle;whiteSpace=wrap;rounded=0;sketch=1;" vertex="1" parent="1">
          <mxGeometry x="185" y="143" width="130" height="30" as="geometry" />
        </mxCell>
        <mxCell id="TckV5BObMm-c08SOVLww-15" value="&lt;font style=&quot;font-size: 12px;&quot; data-font-src=&quot;https://fonts.googleapis.com/css?family=Gloria+Hallelujah&quot; face=&quot;Gloria Hallelujah&quot;&gt;Committee (32N-2)&lt;br&gt;&lt;/font&gt;" style="text;html=1;strokeColor=none;fillColor=none;align=center;verticalAlign=middle;whiteSpace=wrap;rounded=0;sketch=1;" vertex="1" parent="1">
          <mxGeometry x="525" y="143" width="130" height="30" as="geometry" />
        </mxCell>
        <mxCell id="TckV5BObMm-c08SOVLww-16" value="&lt;font style=&quot;font-size: 12px;&quot; data-font-src=&quot;https://fonts.googleapis.com/css?family=Gloria+Hallelujah&quot; face=&quot;Gloria Hallelujah&quot;&gt;Committee (32N-1)&lt;br&gt;&lt;/font&gt;" style="text;html=1;strokeColor=none;fillColor=none;align=center;verticalAlign=middle;whiteSpace=wrap;rounded=0;sketch=1;" vertex="1" parent="1">
          <mxGeometry x="665" y="143" width="130" height="30" as="geometry" />
        </mxCell>
        <mxCell id="TckV5BObMm-c08SOVLww-18" value="&lt;font style=&quot;font-size: 22px;&quot;&gt;...&lt;/font&gt;" style="text;html=1;strokeColor=none;fillColor=none;align=center;verticalAlign=middle;whiteSpace=wrap;rounded=0;sketch=1;fontFamily=Gloria Hallelujah;fontSource=https%3A%2F%2Ffonts.googleapis.com%2Fcss%3Ffamily%3DGloria%2BHallelujah;fontSize=12;" vertex="1" parent="1">
          <mxGeometry x="315" y="135" width="60" height="30" as="geometry" />
        </mxCell>
        <mxCell id="TckV5BObMm-c08SOVLww-19" value="" style="endArrow=none;html=1;rounded=0;sketch=1;fontFamily=Gloria Hallelujah;fontSource=https%3A%2F%2Ffonts.googleapis.com%2Fcss%3Ffamily%3DGloria%2BHallelujah;fontSize=22;jumpStyle=none;" edge="1" parent="1">
          <mxGeometry width="50" height="50" relative="1" as="geometry">
            <mxPoint x="40" y="168" as="sourcePoint" />
            <mxPoint x="40" y="148" as="targetPoint" />
          </mxGeometry>
        </mxCell>
        <mxCell id="TckV5BObMm-c08SOVLww-20" value="" style="endArrow=none;html=1;rounded=0;sketch=1;fontFamily=Gloria Hallelujah;fontSource=https%3A%2F%2Ffonts.googleapis.com%2Fcss%3Ffamily%3DGloria%2BHallelujah;fontSize=22;jumpStyle=none;" edge="1" parent="1">
          <mxGeometry width="50" height="50" relative="1" as="geometry">
            <mxPoint x="180" y="168" as="sourcePoint" />
            <mxPoint x="180" y="148" as="targetPoint" />
          </mxGeometry>
        </mxCell>
        <mxCell id="TckV5BObMm-c08SOVLww-21" value="" style="endArrow=none;html=1;rounded=0;sketch=1;fontFamily=Gloria Hallelujah;fontSource=https%3A%2F%2Ffonts.googleapis.com%2Fcss%3Ffamily%3DGloria%2BHallelujah;fontSize=22;jumpStyle=none;" edge="1" parent="1">
          <mxGeometry width="50" height="50" relative="1" as="geometry">
            <mxPoint x="320" y="168" as="sourcePoint" />
            <mxPoint x="320" y="148" as="targetPoint" />
          </mxGeometry>
        </mxCell>
        <mxCell id="TckV5BObMm-c08SOVLww-22" value="" style="endArrow=none;html=1;rounded=0;sketch=1;fontFamily=Gloria Hallelujah;fontSource=https%3A%2F%2Ffonts.googleapis.com%2Fcss%3Ffamily%3DGloria%2BHallelujah;fontSize=22;jumpStyle=none;" edge="1" parent="1">
          <mxGeometry width="50" height="50" relative="1" as="geometry">
            <mxPoint x="520" y="168" as="sourcePoint" />
            <mxPoint x="520" y="148" as="targetPoint" />
          </mxGeometry>
        </mxCell>
        <mxCell id="TckV5BObMm-c08SOVLww-23" value="" style="endArrow=none;html=1;rounded=0;sketch=1;fontFamily=Gloria Hallelujah;fontSource=https%3A%2F%2Ffonts.googleapis.com%2Fcss%3Ffamily%3DGloria%2BHallelujah;fontSize=22;jumpStyle=none;" edge="1" parent="1">
          <mxGeometry width="50" height="50" relative="1" as="geometry">
            <mxPoint x="660" y="168" as="sourcePoint" />
            <mxPoint x="660" y="148" as="targetPoint" />
          </mxGeometry>
        </mxCell>
        <mxCell id="TckV5BObMm-c08SOVLww-24" value="" style="endArrow=none;html=1;rounded=0;sketch=1;fontFamily=Gloria Hallelujah;fontSource=https%3A%2F%2Ffonts.googleapis.com%2Fcss%3Ffamily%3DGloria%2BHallelujah;fontSize=22;jumpStyle=none;" edge="1" parent="1">
          <mxGeometry width="50" height="50" relative="1" as="geometry">
            <mxPoint x="800" y="168" as="sourcePoint" />
            <mxPoint x="800" y="148" as="targetPoint" />
          </mxGeometry>
        </mxCell>
        <mxCell id="TckV5BObMm-c08SOVLww-25" value="" style="endArrow=none;html=1;rounded=0;fontFamily=Gloria Hallelujah;fontSource=https%3A%2F%2Ffonts.googleapis.com%2Fcss%3Ffamily%3DGloria%2BHallelujah;fontSize=16;sketch=1;startArrow=classic;startFill=1;" edge="1" parent="1">
          <mxGeometry width="50" height="50" relative="1" as="geometry">
            <mxPoint x="41" y="182.9999999999999" as="sourcePoint" />
            <mxPoint x="321.0000000000002" y="182.9999999999999" as="targetPoint" />
          </mxGeometry>
        </mxCell>
        <mxCell id="TckV5BObMm-c08SOVLww-26" value="" style="endArrow=classic;html=1;rounded=0;fontFamily=Gloria Hallelujah;fontSource=https%3A%2F%2Ffonts.googleapis.com%2Fcss%3Ffamily%3DGloria%2BHallelujah;fontSize=16;sketch=1;dashed=1;endFill=1;" edge="1" parent="1">
          <mxGeometry width="50" height="50" relative="1" as="geometry">
            <mxPoint x="320.0000000000002" y="182.9999999999999" as="sourcePoint" />
            <mxPoint x="360" y="183" as="targetPoint" />
          </mxGeometry>
        </mxCell>
        <mxCell id="TckV5BObMm-c08SOVLww-27" value="" style="endArrow=none;html=1;rounded=0;fontFamily=Gloria Hallelujah;fontSource=https%3A%2F%2Ffonts.googleapis.com%2Fcss%3Ffamily%3DGloria%2BHallelujah;fontSize=16;sketch=1;dashed=1;endFill=0;startArrow=classic;startFill=1;" edge="1" parent="1">
          <mxGeometry width="50" height="50" relative="1" as="geometry">
            <mxPoint x="480.0000000000002" y="182.9999999999999" as="sourcePoint" />
            <mxPoint x="520.0000000000002" y="182.9999999999999" as="targetPoint" />
          </mxGeometry>
        </mxCell>
        <mxCell id="TckV5BObMm-c08SOVLww-28" value="" style="endArrow=classic;html=1;rounded=0;fontFamily=Gloria Hallelujah;fontSource=https%3A%2F%2Ffonts.googleapis.com%2Fcss%3Ffamily%3DGloria%2BHallelujah;fontSize=16;sketch=1;startArrow=none;startFill=0;endFill=1;" edge="1" parent="1">
          <mxGeometry width="50" height="50" relative="1" as="geometry">
            <mxPoint x="520" y="182.9999999999999" as="sourcePoint" />
            <mxPoint x="800.0000000000002" y="182.9999999999999" as="targetPoint" />
          </mxGeometry>
        </mxCell>
        <mxCell id="TckV5BObMm-c08SOVLww-29" value="&lt;font style=&quot;font-size: 22px;&quot;&gt;...&lt;/font&gt;" style="text;html=1;strokeColor=none;fillColor=none;align=center;verticalAlign=middle;whiteSpace=wrap;rounded=0;sketch=1;fontFamily=Gloria Hallelujah;fontSource=https%3A%2F%2Ffonts.googleapis.com%2Fcss%3Ffamily%3DGloria%2BHallelujah;fontSize=12;" vertex="1" parent="1">
          <mxGeometry x="465" y="135" width="60" height="30" as="geometry" />
        </mxCell>
        <mxCell id="TckV5BObMm-c08SOVLww-30" value="&lt;font style=&quot;font-size: 16px;&quot; data-font-src=&quot;https://fonts.googleapis.com/css?family=Gloria+Hallelujah&quot; face=&quot;Gloria Hallelujah&quot;&gt;Slot 0 committees&lt;/font&gt;" style="text;html=1;strokeColor=none;fillColor=none;align=center;verticalAlign=middle;whiteSpace=wrap;rounded=0;sketch=1;" vertex="1" parent="1">
          <mxGeometry x="76" y="190" width="250" height="30" as="geometry" />
        </mxCell>
        <mxCell id="TckV5BObMm-c08SOVLww-31" value="&lt;font style=&quot;font-size: 16px;&quot; data-font-src=&quot;https://fonts.googleapis.com/css?family=Gloria+Hallelujah&quot; face=&quot;Gloria Hallelujah&quot;&gt;Slot 31 committees&lt;/font&gt;" style="text;html=1;strokeColor=none;fillColor=none;align=center;verticalAlign=middle;whiteSpace=wrap;rounded=0;sketch=1;" vertex="1" parent="1">
          <mxGeometry x="533" y="190" width="250" height="30" as="geometry" />
        </mxCell>
        <mxCell id="TckV5BObMm-c08SOVLww-32" value="" style="rounded=0;whiteSpace=wrap;html=1;sketch=1;fontFamily=Gloria Hallelujah;fontSource=https%3A%2F%2Ffonts.googleapis.com%2Fcss%3Ffamily%3DGloria%2BHallelujah;fontSize=16;fillStyle=hachure;fillColor=#000000;strokeColor=none;" vertex="1" parent="1">
          <mxGeometry x="40" y="120" width="760" height="20" as="geometry" />
        </mxCell>
        <mxCell id="TckV5BObMm-c08SOVLww-33" value="&lt;font style=&quot;font-size: 22px;&quot;&gt;...&lt;/font&gt;" style="text;html=1;strokeColor=none;fillColor=none;align=center;verticalAlign=middle;whiteSpace=wrap;rounded=0;sketch=1;fontFamily=Gloria Hallelujah;fontSource=https%3A%2F%2Ffonts.googleapis.com%2Fcss%3Ffamily%3DGloria%2BHallelujah;fontSize=12;" vertex="1" parent="1">
          <mxGeometry x="390" y="160" width="60" height="30" as="geometry" />
        </mxCell>
      </root>
    </mxGraphModel>
  </diagram>
</mxfile>
